<svg class="svg-icon" style="width: 1em; height: 1em;vertical-align: middle;fill: currentColor;overflow: hidden;" viewBox="0 0 1024 1024" version="1.1" xmlns="http://www.w3.org/2000/svg"><path fill="#bd9773" d="M1008 92.304 1008 16 16 16l0 915.68 76.304 0L92.304 702.768l228.928 0L321.232 931.68l76.304 0L397.536 702.768l228.928 0L626.464 931.68l76.304 0L702.768 702.768 931.68 702.768 931.68 931.68 1008 931.68 1008 702.768l0 0 0-76.304 0 0L1008 397.536l0 0 0-76.304 0 0L1008 92.304 1008 92.304zM321.232 626.464 92.304 626.464 92.304 397.536l228.928 0L321.232 626.464zM321.232 321.232 92.304 321.232 92.304 92.304l228.928 0L321.232 321.232zM626.464 626.464 397.536 626.464 397.536 397.536l228.928 0L626.464 626.464zM626.464 321.232 397.536 321.232 397.536 92.304l228.928 0L626.464 321.232zM931.68 626.464 702.768 626.464 702.768 397.536 931.68 397.536 931.68 626.464zM931.68 321.232 702.768 321.232 702.768 92.304 931.68 92.304 931.68 321.232zM16 1008l992 0 0-76.304L16 931.696 16 1008z"  /></svg>